<svg xmlns="http://www.w3.org/2000/svg" viewBox="208 328 896 914" width="896" height="914"><path fill="#163A5C" fill-rule="evenodd" d="M 817.453 361.278 C 815.897 363.050, 810.113 369.225, 804.599 375 C 799.085 380.775, 790.083 390.225, 784.595 396 C 779.107 401.775, 769.865 411.464, 764.058 417.531 C 758.251 423.598, 749.675 432.611, 745 437.560 C 740.325 442.509, 727.725 455.737, 717 466.955 C 706.275 478.173, 696.375 488.545, 695 490.003 C 693.625 491.462, 684.131 501.395, 673.903 512.078 C 663.675 522.760, 654.149 532.764, 652.735 534.308 C 651.321 535.852, 642.139 545.504, 632.332 555.757 C 622.524 566.010, 609.775 579.362, 604 585.428 C 598.225 591.493, 588.750 601.416, 582.946 607.478 C 577.141 613.540, 567.466 623.675, 561.446 630 C 555.425 636.325, 545.325 646.893, 539 653.485 C 518.517 674.831, 505.667 688.236, 492.974 701.500 C 486.132 708.650, 476.217 719, 470.940 724.500 C 461.893 733.928, 446.532 750.081, 441 755.981 C 439.625 757.447, 430.850 766.677, 421.500 776.493 C 412.150 786.308, 403.375 795.534, 402 796.996 C 399.778 799.358, 382.031 818.060, 356.937 844.483 C 352.227 849.443, 344.127 857.948, 338.937 863.385 C 333.747 868.821, 329.041 873.771, 328.479 874.385 C 326.963 876.041, 292.094 912.869, 272.509 933.500 C 246.751 960.633, 244.959 962.626, 245.673 963.340 C 246.036 963.703, 277.571 964, 315.750 964 C 353.929 964, 385.017 964.337, 384.833 964.750 C 384.244 966.076, 372.827 985.379, 370.491 989 C 369.249 990.925, 362.486 1002.175, 355.463 1014 C 348.440 1025.825, 341.701 1037.075, 340.487 1039 C 339.273 1040.925, 337.254 1044.300, 336 1046.500 C 334.746 1048.700, 332.724 1052.075, 331.506 1054 C 329.285 1057.511, 323.899 1066.597, 307.497 1094.500 C 302.647 1102.750, 294.775 1116.025, 290.003 1124 C 285.231 1131.975, 275.334 1148.625, 268.009 1161 C 260.685 1173.375, 250.695 1190.196, 245.810 1198.381 C 240.925 1206.565, 237.057 1213.376, 237.214 1213.515 C 237.535 1213.801, 241.020 1212.186, 266 1200.179 C 275.625 1195.553, 288 1189.620, 293.500 1186.996 C 299 1184.372, 312.050 1178.076, 322.500 1173.005 C 332.950 1167.934, 350.725 1159.382, 362 1154.001 C 373.275 1148.619, 391.500 1139.841, 402.500 1134.493 C 413.500 1129.145, 427.450 1122.398, 433.500 1119.498 C 451.576 1110.834, 470.477 1101.727, 488.500 1092.998 C 497.850 1088.469, 511.800 1081.727, 519.500 1078.016 C 527.200 1074.305, 539.125 1068.558, 546 1065.244 C 552.875 1061.930, 571.100 1053.045, 586.500 1045.498 C 601.900 1037.951, 620.800 1028.728, 628.500 1025.001 C 636.200 1021.275, 667.205 1006.025, 697.401 991.113 L 752.302 964 913.651 964 L 1075 964 1075 942 L 1075 920 923 920 C 839.400 920, 771 919.720, 771 919.377 C 771 919.035, 773.587 915.986, 776.750 912.601 C 799.131 888.648, 813.472 859.358, 819.011 826.284 C 821.876 809.176, 821.469 783.291, 818.087 767.500 C 813.277 745.048, 803.327 721.856, 791.282 705.021 C 782.500 692.747, 764.045 674.297, 752 665.750 C 720.159 643.155, 681.636 632.536, 644 635.978 C 632.548 637.026, 617.246 639.755, 612.614 641.577 C 609.428 642.830, 611.043 640.622, 620.500 630.802 C 625.450 625.661, 638.050 612.477, 648.500 601.503 C 658.950 590.528, 671.550 577.308, 676.500 572.124 C 681.450 566.939, 686.625 561.487, 688 560.008 C 689.375 558.528, 695.450 552.162, 701.500 545.860 C 707.550 539.559, 720.150 526.336, 729.500 516.476 C 738.850 506.616, 750.384 494.488, 755.130 489.524 C 759.877 484.561, 766.725 477.350, 770.348 473.500 L 776.936 466.500 776.968 554.161 L 777 641.823 785.750 648.817 C 795.842 656.883, 808.426 669.627, 815.556 679 L 820.500 685.500 821.151 680 C 822.139 671.659, 822.128 359.197, 821.141 358.587 C 820.668 358.295, 819.008 359.506, 817.453 361.278 M 2158 561.939 C 2100.646 568.090, 2054.643 603.750, 2037.510 655.340 C 2024.671 694.002, 2027.254 735.957, 2044.594 770.387 C 2068.655 818.163, 2118.254 847.087, 2175.936 846.980 C 2213.090 846.912, 2245.208 835.193, 2269.578 812.815 C 2278.273 804.831, 2286.024 796.569, 2285.921 795.396 C 2285.878 794.903, 2276.612 786.054, 2265.329 775.732 L 2244.816 756.964 2234.562 766.732 C 2222.958 777.787, 2214.903 782.972, 2203.925 786.454 C 2155.640 801.770, 2108.648 775.522, 2096.993 726.724 C 2092.845 709.358, 2093.741 688.931, 2099.377 672.360 C 2111.607 636.403, 2143.865 615.023, 2182.426 617.318 C 2195.567 618.100, 2202.276 619.912, 2214.783 626.058 C 2223.508 630.346, 2226.571 632.557, 2235.009 640.656 L 2244.953 650.200 2264.976 630.874 C 2275.989 620.244, 2285 610.929, 2285 610.173 C 2285 607.770, 2267.760 591.632, 2258.881 585.725 C 2242.161 574.599, 2222.982 566.945, 2203.013 563.428 C 2192.799 561.629, 2168.412 560.822, 2158 561.939 M 1145.999 703.750 L 1146 841 1246.500 841 L 1347 841 1347 814 L 1347 787 1278.500 787 L 1210 787 1210 677 L 1210 567 1201.250 566.997 C 1196.438 566.995, 1182.037 566.883, 1169.249 566.747 L 1145.999 566.500 1145.999 703.750 M 1374.667 566.667 C 1374.300 567.033, 1374 628.908, 1374 704.167 L 1374 841 1404 841 L 1434 841 1433.989 837.250 C 1433.840 785.814, 1434.465 682.831, 1434.928 682.544 C 1435.273 682.331, 1441.432 692.134, 1448.614 704.328 C 1465.806 733.516, 1490.218 774.446, 1502.688 794.993 L 1512.699 811.487 1517.404 812.276 C 1519.991 812.710, 1527.138 812.937, 1533.285 812.782 L 1544.461 812.500 1552.687 798.500 C 1569.314 770.202, 1574.136 761.960, 1589.252 736 C 1614.428 692.763, 1621.060 681.552, 1622.056 680.550 C 1622.648 679.954, 1623 709.698, 1623 760.300 L 1623 841 1653.004 841 L 1683.007 841 1682.754 703.750 L 1682.500 566.500 1655.012 566.500 L 1627.524 566.500 1604.757 605.500 C 1592.235 626.950, 1574.716 657.100, 1565.826 672.500 C 1552.319 695.897, 1533.357 728.612, 1530.261 733.861 C 1529.715 734.785, 1522.286 723.083, 1507.091 697.361 C 1494.789 676.537, 1479.672 650.950, 1473.498 640.500 C 1455.281 609.665, 1436.376 577.922, 1432.554 571.750 L 1428.993 566 1402.163 566 C 1387.407 566, 1375.033 566.300, 1374.667 566.667 M 1734.667 566.667 C 1734.300 567.033, 1734 628.908, 1734 704.167 L 1734 841 1834.500 841 L 1935 841 1935 814.607 C 1935 791.463, 1934.805 788.139, 1933.418 787.607 C 1932.548 787.273, 1901.723 787, 1864.918 787 L 1798 787 1798 676.500 L 1798 566 1766.667 566 C 1749.433 566, 1735.033 566.300, 1734.667 566.667 M 2384.599 628.508 C 2363.603 631.936, 2345.019 639.764, 2330.434 651.322 C 2296.721 678.039, 2282.735 723.203, 2294.457 767.500 C 2301.951 795.823, 2321.421 819.646, 2348.536 833.675 C 2379.246 849.563, 2422.091 850.301, 2454.564 835.502 C 2478.733 824.488, 2499.418 803.042, 2508.474 779.610 C 2532.234 718.129, 2504.298 653.915, 2445 633.707 C 2427.449 627.726, 2402.528 625.581, 2384.599 628.508 M 2398.500 678.573 C 2397.400 678.819, 2394.025 679.512, 2391 680.114 C 2377.410 682.817, 2364.876 693.103, 2358.240 707 C 2353.218 717.516, 2351.996 723.266, 2352.015 736.299 C 2352.065 770.796, 2372.519 794, 2402.877 794 C 2434.416 794, 2455.292 771.099, 2455.292 736.500 C 2455.292 723.949, 2453.143 714.811, 2447.890 705.014 C 2441.132 692.413, 2432.279 684.745, 2420.119 680.960 C 2414.171 679.109, 2402.082 677.774, 2398.500 678.573 M 643.099 680.118 C 598.362 685.305, 560.574 715.042, 544.044 758.066 C 534.562 782.747, 534.538 816.475, 543.987 840.834 C 560.591 883.641, 598.964 913.926, 643.108 919.062 C 703.780 926.122, 759.409 886.782, 774.083 826.440 C 776.189 817.778, 776.491 814.250, 776.431 799 C 776.354 779.800, 774.507 769.826, 768.124 754.139 C 747.877 704.388, 696.436 673.933, 643.099 680.118 M 491.564 765.250 C 488.916 768.138, 480.106 777.475, 471.987 786 C 463.868 794.525, 455.262 803.585, 452.863 806.134 C 450.463 808.683, 441.750 817.908, 433.500 826.634 C 419.036 841.933, 410.105 851.384, 392 870.550 C 376.551 886.905, 355.398 909.421, 350.711 914.500 L 346.097 919.500 444.710 919.755 C 498.948 919.895, 543.529 919.805, 543.780 919.554 C 544.031 919.303, 540.565 915.138, 536.078 910.299 C 507.362 879.326, 493 842.719, 493 800.495 C 493 786.558, 495.641 764.009, 497.654 760.751 C 497.909 760.338, 497.727 760, 497.249 760 C 496.770 760, 494.212 762.362, 491.564 765.250 M 1977.746 771.022 C 1967.336 773.651, 1958.004 781.205, 1953.308 790.803 C 1949.409 798.773, 1948.801 812.815, 1951.990 821.282 C 1955.322 830.128, 1961.632 837.384, 1970.452 842.512 C 1972.045 843.438, 1971.465 845.733, 1963.619 869.523 C 1958.904 883.823, 1954.754 896.980, 1954.398 898.761 L 1953.750 902 1974.232 902 L 1994.715 902 1999.271 891.250 C 2023.777 833.440, 2024.005 832.828, 2026.106 819.102 C 2030.300 791.705, 2015.234 771.386, 1990 770.405 C 1985.325 770.223, 1979.811 770.501, 1977.746 771.022 M 1252.450 937.407 C 1240.077 942.796, 1240.105 959.819, 1252.495 964.551 C 1261.846 968.123, 1272.428 964.293, 1275.035 956.394 C 1276.472 952.041, 1275.801 945.872, 1273.512 942.378 C 1270.011 937.035, 1259.176 934.477, 1252.450 937.407 M 1323.500 942.892 C 1308.767 946.866, 1301.247 956.501, 1300.236 972.698 L 1299.718 981 1292.859 981 L 1286 981 1286 991.500 L 1286 1002 1293 1002 L 1300 1002 1300 1038 L 1300 1074 1313 1074 L 1326 1074 1326 1038.032 L 1326 1002.063 1337.750 1001.782 L 1349.500 1001.500 1349.797 993.503 C 1350.284 980.353, 1350.928 981, 1337.361 981 L 1325.760 981 1326.191 975.037 C 1326.906 965.152, 1332.619 961.520, 1343.211 964.217 L 1348.795 965.640 1351.410 957.070 C 1354.726 946.204, 1354.726 946.207, 1350.250 944.300 C 1346.036 942.505, 1328.382 941.575, 1323.500 942.892 M 1732.667 943.667 C 1732.300 944.033, 1732 973.508, 1732 1009.167 L 1732 1074 1744.883 1074 C 1760.085 1074, 1758.965 1075.200, 1758.986 1058.888 L 1759 1048.276 1765.198 1042.638 C 1768.607 1039.537, 1771.645 1037.003, 1771.948 1037.006 C 1772.252 1037.010, 1778.575 1045.319, 1786 1055.471 L 1799.500 1073.930 1815.750 1073.965 C 1824.688 1073.984, 1832 1073.785, 1832 1073.521 C 1832 1073.258, 1822.735 1060.864, 1811.411 1045.980 L 1790.822 1018.916 1795.106 1014.208 C 1797.462 1011.619, 1805.602 1003.042, 1813.195 995.149 C 1820.788 987.255, 1827 980.393, 1827 979.899 C 1827 979.404, 1819.984 979, 1811.409 979 L 1795.818 979 1777.409 997.632 C 1767.284 1007.880, 1758.983 1016.093, 1758.963 1015.882 C 1758.943 1015.672, 1758.912 1003.575, 1758.894 989 C 1758.876 974.425, 1758.619 958.112, 1758.323 952.750 L 1757.784 943 1745.559 943 C 1738.835 943, 1733.033 943.300, 1732.667 943.667 M 2315.695 943.638 C 2315.313 944.021, 2315 973.508, 2315 1009.167 L 2315 1074 2327.500 1074 L 2340 1074 2340 1069 C 2340 1066.250, 2340.251 1064, 2340.559 1064 C 2340.866 1064, 2342.778 1065.329, 2344.809 1066.954 C 2359.825 1078.973, 2385.125 1077.317, 2400.072 1063.336 C 2419.013 1045.619, 2419.904 1010.525, 2401.897 991.485 C 2387.127 975.868, 2361.857 972.997, 2344.976 985.017 L 2342.039 987.108 2341.770 965.304 L 2341.500 943.500 2328.945 943.222 C 2322.040 943.068, 2316.077 943.256, 2315.695 943.638 M 1146 1011.972 L 1146 1074 1190 1074 L 1234 1074 1234 1062 L 1234 1050 1204.009 1050 L 1174.019 1050 1173.759 1000.250 L 1173.500 950.500 1159.750 950.222 L 1146 949.944 1146 1011.972 M 1468.667 950.667 C 1468.300 951.033, 1468 978.946, 1468 1012.696 L 1468 1074.058 1481.250 1073.779 L 1494.500 1073.500 1494.345 1038.250 C 1494.260 1018.862, 1494.485 1003.014, 1494.845 1003.031 C 1495.205 1003.049, 1501.914 1013.988, 1509.753 1027.341 C 1517.593 1040.694, 1525.345 1053.730, 1526.981 1056.310 L 1529.956 1061 1536.235 1061 L 1542.515 1061 1545.311 1056.370 C 1546.850 1053.823, 1554.721 1040.242, 1562.804 1026.190 L 1577.500 1000.641 1577.762 1037.320 L 1578.025 1074 1591.512 1074 L 1605 1074 1605 1012.617 L 1605 951.233 1602.750 950.630 C 1598.398 949.464, 1581.298 949.935, 1580.235 951.250 C 1579.257 952.461, 1559.994 985.139, 1544.805 1011.354 C 1540.708 1018.423, 1537.006 1024.273, 1536.577 1024.354 C 1536.149 1024.434, 1526.206 1008.300, 1514.483 988.500 C 1502.760 968.700, 1492.663 951.938, 1492.045 951.250 C 1490.849 949.919, 1469.936 949.397, 1468.667 950.667 M 2110.694 950.639 C 2110.312 951.021, 2110 978.933, 2110 1012.667 L 2110 1074 2154 1074 L 2198 1074 2198 1062 L 2198 1050 2168.009 1050 L 2138.019 1050 2137.759 1000.250 L 2137.500 950.500 2124.444 950.222 C 2117.264 950.070, 2111.076 950.257, 2110.694 950.639 M 432.580 969.251 C 430.973 972.138, 427.783 977.650, 425.489 981.500 C 423.196 985.350, 414.658 999.750, 406.517 1013.500 C 398.375 1027.250, 390.715 1040.075, 389.495 1042 C 388.274 1043.925, 383.338 1052.250, 378.526 1060.500 C 373.713 1068.750, 369.004 1076.625, 368.061 1078 C 367.118 1079.375, 364.581 1083.570, 362.423 1087.323 C 360.265 1091.075, 358.044 1094.900, 357.487 1095.823 C 356.930 1096.745, 355.167 1099.750, 353.568 1102.500 C 351.970 1105.250, 350.017 1108.261, 349.228 1109.192 C 345.753 1113.294, 349.577 1112.183, 365.011 1104.606 C 395.146 1089.812, 456.789 1059.911, 474.500 1051.496 C 479.450 1049.144, 492.050 1043.067, 502.500 1037.991 C 545.059 1017.318, 557.179 1011.435, 571.500 1004.496 C 579.750 1000.499, 598.650 991.278, 613.500 984.005 C 628.350 976.732, 643.313 969.499, 646.750 967.933 C 650.188 966.366, 653 964.840, 653 964.542 C 653 964.244, 604.063 964, 544.250 964.001 L 435.500 964.002 432.580 969.251 M 1390.263 978.451 C 1363.892 984.448, 1347.650 1011.761, 1354.532 1038.540 C 1360.558 1061.992, 1379.415 1075.135, 1406.950 1075.079 C 1420.865 1075.050, 1431.718 1071.332, 1440.397 1063.621 L 1444.294 1060.159 1441.229 1056.330 C 1439.544 1054.223, 1436.143 1050.534, 1433.673 1048.130 L 1429.180 1043.761 1425.228 1046.937 C 1415.539 1054.723, 1398.242 1054.998, 1388.440 1047.522 C 1385.621 1045.372, 1380 1036.721, 1380 1034.533 C 1380 1034.240, 1395.799 1034, 1415.108 1034 L 1450.216 1034 1449.798 1022.750 C 1449.321 1009.869, 1447.134 1003.372, 1440.310 994.563 C 1429.650 980.800, 1409.069 974.174, 1390.263 978.451 M 1651.829 978.567 C 1644.191 979.950, 1635.703 983.167, 1629.373 987.079 L 1626.047 989.134 1630.534 998.067 C 1633.001 1002.980, 1635.200 1007, 1635.420 1007 C 1635.640 1007, 1638.644 1005.665, 1642.095 1004.032 C 1653.630 998.578, 1666.208 997.566, 1674.284 1001.443 C 1678.481 1003.458, 1683 1010.078, 1683 1014.210 L 1683 1016.744 1666.250 1017.283 C 1648.526 1017.853, 1643.232 1018.916, 1635.472 1023.464 C 1626.115 1028.947, 1622.552 1035.870, 1623.187 1047.333 C 1623.841 1059.148, 1629.084 1066.832, 1639.914 1071.848 C 1644.534 1073.988, 1647.316 1074.500, 1656 1074.809 C 1668.346 1075.249, 1675.553 1073.174, 1681.648 1067.425 C 1683.646 1065.541, 1685.442 1064, 1685.640 1064 C 1685.838 1064, 1686 1066.250, 1686 1069 L 1686 1074 1698 1074 L 1710 1074 1710 1041.021 C 1710 1009.898, 1709.878 1007.671, 1707.834 1001.445 C 1701.637 982.568, 1679.560 973.550, 1651.829 978.567 M 1868.191 979.025 C 1858.349 981.603, 1852.061 985.207, 1845.618 991.962 C 1835.853 1002.200, 1831.346 1014.947, 1832.331 1029.543 C 1833.251 1043.187, 1837.841 1052.998, 1847.380 1061.716 C 1857.424 1070.896, 1869.047 1075, 1885 1075 C 1900.223 1075, 1911.712 1071.031, 1919.310 1063.147 L 1922.825 1059.500 1915.470 1051.521 L 1908.116 1043.542 1905.808 1045.658 C 1896.690 1054.018, 1879.283 1055.325, 1868.769 1048.440 C 1865.617 1046.376, 1859.040 1037.159, 1859.009 1034.763 C 1859.004 1034.357, 1874.862 1033.907, 1894.250 1033.763 L 1929.500 1033.500 1929.812 1029.154 C 1930.366 1021.439, 1928.171 1010.906, 1924.401 1003.186 C 1914.348 982.608, 1891.691 972.869, 1868.191 979.025 M 1994 978.115 C 1987.281 979.218, 1976.766 984.211, 1974.144 987.544 C 1971.386 991.050, 1971 990.676, 1971 984.500 L 1971 979 1958.500 979 L 1946 979 1946 1026.500 L 1946 1074 1959.442 1074 L 1972.884 1074 1973.192 1046.250 C 1973.497 1018.775, 1973.525 1018.456, 1976 1014.044 C 1980.072 1006.787, 1985.370 1003.764, 1994.992 1003.207 L 2003.058 1002.740 2002.779 990.132 C 2002.465 975.927, 2002.987 976.641, 1994 978.115 M 2040.164 978.588 C 2021.853 982.596, 2010.899 994.920, 2012.264 1009.976 C 2013.703 1025.843, 2021.878 1031.722, 2049.783 1036.957 C 2063.031 1039.442, 2065.850 1040.553, 2066.613 1043.592 C 2069.528 1055.208, 2046.728 1057.912, 2026.091 1048.399 C 2022.017 1046.521, 2018.623 1045.100, 2018.550 1045.242 C 2018.476 1045.384, 2016.471 1049.666, 2014.093 1054.759 C 2009.029 1065.603, 2009.027 1065.597, 2018.801 1069.510 C 2027.954 1073.174, 2038.314 1075, 2049.951 1075 C 2061.718 1075, 2068.548 1073.811, 2075.763 1070.508 C 2088.601 1064.631, 2093.424 1057.542, 2093.458 1044.500 C 2093.503 1027.161, 2085.317 1020.654, 2057.500 1015.920 C 2043.353 1013.513, 2039.633 1011.753, 2039.191 1007.260 C 2038.135 996.519, 2058.162 995.112, 2080.018 1004.391 C 2081.162 1004.877, 2082.579 1002.933, 2085.768 996.503 C 2090.761 986.436, 2090.847 985.713, 2087.250 984.047 C 2073.430 977.646, 2054.495 975.451, 2040.164 978.588 M 2234.500 978.497 C 2223.550 980.558, 2210 986.470, 2210 989.188 C 2210 990.042, 2217.657 1005.920, 2218.500 1006.815 C 2218.664 1006.989, 2221.431 1005.808, 2224.649 1004.191 C 2241.759 995.593, 2259.786 998.064, 2264.636 1009.671 C 2267.624 1016.824, 2267.905 1016.685, 2249.250 1017.262 C 2230.964 1017.828, 2225.618 1018.952, 2217.881 1023.860 C 2201.667 1034.145, 2201.414 1058.007, 2217.405 1068.759 C 2231.292 1078.095, 2253.993 1077.507, 2264.251 1067.545 L 2267.760 1064.136 2268.415 1069.068 L 2269.069 1074 2281.093 1074 L 2293.118 1074 2292.809 1039.250 L 2292.500 1004.500 2289.865 998.880 C 2284.423 987.275, 2276.010 981.245, 2261.345 978.439 C 2252.298 976.708, 2243.914 976.726, 2234.500 978.497 M 2453.763 978.459 C 2436.054 982.165, 2425 993.538, 2425 1008.052 C 2425 1024.063, 2434.292 1031.603, 2460.192 1036.606 C 2478.567 1040.156, 2482.370 1042.703, 2478.920 1049.150 C 2475.153 1056.188, 2454.541 1055.597, 2438.182 1047.982 L 2431.865 1045.042 2427.426 1054.606 C 2424.984 1059.866, 2423.245 1064.588, 2423.561 1065.099 C 2424.503 1066.622, 2431.034 1069.628, 2438.500 1071.975 C 2447.369 1074.762, 2467.893 1075.871, 2477.096 1074.061 C 2498.259 1069.897, 2509.632 1055.994, 2506.038 1038.682 C 2504.706 1032.266, 2501.482 1027.571, 2495.781 1023.742 C 2490.750 1020.363, 2485.149 1018.670, 2470 1015.952 C 2456.302 1013.494, 2452.628 1011.701, 2452.191 1007.260 C 2451.297 998.164, 2467.702 995.283, 2485.161 1001.470 C 2489.197 1002.900, 2492.899 1004.167, 2493.387 1004.285 C 2494.282 1004.502, 2502.837 988.466, 2502.943 986.373 C 2503.017 984.910, 2494.869 981.427, 2486.832 979.486 C 2477.596 977.256, 2461.849 976.767, 2453.763 978.459 M 1247 1026.471 L 1247 1074 1260.510 1074 L 1274.020 1074 1273.760 1026.750 L 1273.500 979.500 1260.250 979.221 L 1247 978.942 1247 1026.471 M 1397.184 999.084 C 1389.091 1000.648, 1383.302 1005.975, 1381.010 1013.965 L 1380.140 1017 1402.070 1017 C 1426.248 1017, 1425.241 1017.328, 1422.120 1010.459 C 1418.029 1001.451, 1408.181 996.959, 1397.184 999.084 M 1876.753 999.134 C 1868.408 1000.364, 1862.379 1005.704, 1860.010 1013.965 L 1859.140 1017 1881.070 1017 C 1905.294 1017, 1904.665 1017.195, 1901.383 1010.700 C 1896.733 1001.497, 1888.131 997.457, 1876.753 999.134 M 2356.625 1001.409 C 2337.599 1008.484, 2335.817 1040.126, 2353.907 1049.674 C 2359.418 1052.582, 2367.719 1052.765, 2373.571 1050.107 C 2390.196 1042.556, 2391.579 1013.538, 2375.783 1003.692 C 2370.265 1000.253, 2362.291 999.303, 2356.625 1001.409 M 1655.119 1035.885 C 1649.349 1038.960, 1647.589 1044.371, 1650.517 1050.033 C 1655.213 1059.114, 1675.032 1058.156, 1680.962 1048.561 C 1682.381 1046.265, 1683 1043.553, 1683 1039.632 L 1683 1034 1670.750 1034.042 C 1660.925 1034.076, 1657.831 1034.440, 1655.119 1035.885 M 2238.360 1035.924 C 2231.668 1038.963, 2230.053 1047.883, 2235.302 1052.814 C 2238.560 1055.875, 2245.850 1057.226, 2251.995 1055.908 C 2260.958 1053.985, 2266 1047.916, 2266 1039.050 L 2266 1034 2254.250 1034.022 C 2244.919 1034.039, 2241.648 1034.431, 2238.360 1035.924"/></svg>